<?xml version="1.0" encoding="utf-8"?>
<!-- Generator: Adobe Illustrator 16.0.0, SVG Export Plug-In . SVG Version: 6.00 Build 0)  -->
<!DOCTYPE svg PUBLIC "-//W3C//DTD SVG 1.1//EN" "http://www.w3.org/Graphics/SVG/1.1/DTD/svg11.dtd">
<svg version="1.1" id="Layer_1" xmlns="http://www.w3.org/2000/svg" xmlns:xlink="http://www.w3.org/1999/xlink" x="0px" y="0px"
	 width="24px" height="24px" viewBox="0 0 24 24" enable-background="new 0 0 24 24" xml:space="preserve">
<g>
	<line fill="#1D1D1B" x1="3.5" y1="11" x2="3.5" y2="13"/>
	<path fill="#1D1D1B" d="M3.5,13.5C3.2,13.5,3,13.3,3,13v-2c0-0.3,0.2-0.5,0.5-0.5S4,10.7,4,11v2C4,13.3,3.8,13.5,3.5,13.5z"/>
</g>
<g>
	<line fill="#1D1D1B" x1="5.5" y1="9" x2="5.5" y2="15"/>
	<path fill="#1D1D1B" d="M5.5,15.5C5.2,15.5,5,15.3,5,15V9c0-0.3,0.2-0.5,0.5-0.5C5.8,8.5,6,8.7,6,9v6C6,15.3,5.8,15.5,5.5,15.5z"/>
</g>
<g>
	<line fill="#1D1D1B" x1="7.5" y1="6" x2="7.5" y2="18"/>
	<path fill="#1D1D1B" d="M7.5,18.5C7.2,18.5,7,18.3,7,18V6c0-0.3,0.2-0.5,0.5-0.5S8,5.7,8,6v12C8,18.3,7.8,18.5,7.5,18.5z"/>
</g>
<g>
	<line fill="#1D1D1B" x1="9.5" y1="9" x2="9.5" y2="15"/>
	<path fill="#1D1D1B" d="M9.5,15.5C9.2,15.5,9,15.3,9,15V9c0-0.3,0.2-0.5,0.5-0.5C9.8,8.5,10,8.7,10,9v6C10,15.3,9.8,15.5,9.5,15.5z
		"/>
</g>
<g>
	<line fill="#1D1D1B" x1="11.5" y1="11" x2="11.5" y2="13"/>
	<path fill="#1D1D1B" d="M11.5,13.5c-0.3,0-0.5-0.2-0.5-0.5v-2c0-0.3,0.2-0.5,0.5-0.5S12,10.7,12,11v2C12,13.3,11.8,13.5,11.5,13.5z
		"/>
</g>
<g>
	<line fill="#1D1D1B" x1="13.5" y1="8.5" x2="13.5" y2="15.5"/>
	<path fill="#1D1D1B" d="M13.5,16c-0.3,0-0.5-0.2-0.5-0.5v-7C13,8.2,13.2,8,13.5,8C13.8,8,14,8.2,14,8.5v7C14,15.8,13.8,16,13.5,16z
		"/>
</g>
<g>
	<line fill="#1D1D1B" x1="15.5" y1="5" x2="15.5" y2="19"/>
	<path fill="#1D1D1B" d="M15.5,19.5c-0.3,0-0.5-0.2-0.5-0.5V5c0-0.3,0.2-0.5,0.5-0.5S16,4.7,16,5v14C16,19.3,15.8,19.5,15.5,19.5z"
		/>
</g>
<g>
	<line fill="#1D1D1B" x1="17.5" y1="8.5" x2="17.5" y2="15.5"/>
	<path fill="#1D1D1B" d="M17.5,16c-0.3,0-0.5-0.2-0.5-0.5v-7C17,8.2,17.2,8,17.5,8C17.8,8,18,8.2,18,8.5v7C18,15.8,17.8,16,17.5,16z
		"/>
</g>
<g>
	<line fill="#1D1D1B" x1="19.5" y1="11" x2="19.5" y2="13"/>
	<path fill="#1D1D1B" d="M19.5,13.5c-0.3,0-0.5-0.2-0.5-0.5v-2c0-0.3,0.2-0.5,0.5-0.5S20,10.7,20,11v2C20,13.3,19.8,13.5,19.5,13.5z
		"/>
</g>
</svg>
