<?xml version="1.0" encoding="utf-8"?>
<!-- Generator: Adobe Illustrator 16.0.0, SVG Export Plug-In . SVG Version: 6.00 Build 0)  -->
<!DOCTYPE svg PUBLIC "-//W3C//DTD SVG 1.1//EN" "http://www.w3.org/Graphics/SVG/1.1/DTD/svg11.dtd">
<svg version="1.1" id="Layer_1" xmlns="http://www.w3.org/2000/svg" xmlns:xlink="http://www.w3.org/1999/xlink" x="0px" y="0px"
	 width="24px" height="24px" viewBox="0 0 24 24" enable-background="new 0 0 24 24" xml:space="preserve">
<path d="M7.1,13.8c0,2.7,2.2,4.9,4.9,4.9s4.9-2.2,4.9-4.9S14.7,8.9,12,8.9S7.1,11.1,7.1,13.8z M22.5,5.5h-5.2c-0.4-1.5-0.8-3-2.2-3
	H9c-1.5,0-1.9,1.5-2.2,3H1.5C0.7,5.5,0,6.2,0,7v13.5C0,21.3,0.7,22,1.5,22h21c0.8,0,1.5-0.7,1.5-1.5V7C24,6.2,23.3,5.5,22.5,5.5z
	 M12,20.4c-3.7,0-6.7-3-6.7-6.7s3-6.7,6.7-6.7s6.7,3,6.7,6.7S15.7,20.4,12,20.4z M23,10h-3V8h3V10z"/>
</svg>
