<?xml version="1.0" encoding="utf-8"?>
<!-- Generator: Adobe Illustrator 16.0.0, SVG Export Plug-In . SVG Version: 6.00 Build 0)  -->
<!DOCTYPE svg PUBLIC "-//W3C//DTD SVG 1.1//EN" "http://www.w3.org/Graphics/SVG/1.1/DTD/svg11.dtd">
<svg version="1.1" id="Layer_1" xmlns="http://www.w3.org/2000/svg" xmlns:xlink="http://www.w3.org/1999/xlink" x="0px" y="0px"
	 width="24px" height="24px" viewBox="0 0 24 24" enable-background="new 0 0 24 24" xml:space="preserve">
<path d="M7.125,13.75c0,2.692,2.183,4.875,4.875,4.875s4.875-2.183,4.875-4.875S14.692,8.875,12,8.875S7.125,11.058,7.125,13.75z
	 M22.5,5.5h-5.25c-0.375-1.5-0.75-3-2.25-3H9c-1.5,0-1.875,1.5-2.25,3H1.5C0.675,5.5,0,6.175,0,7v13.5C0,21.325,0.675,22,1.5,22h21
	c0.825,0,1.5-0.675,1.5-1.5V7C24,6.175,23.325,5.5,22.5,5.5z M12,20.406c-3.676,0-6.656-2.98-6.656-6.656S8.324,7.094,12,7.094
	s6.656,2.98,6.656,6.656S15.676,20.406,12,20.406z M23,10h-3V8h3V10z"/>
</svg>
