<?xml version="1.0" encoding="utf-8"?>
<!-- Generator: Adobe Illustrator 16.0.0, SVG Export Plug-In . SVG Version: 6.00 Build 0)  -->
<!DOCTYPE svg PUBLIC "-//W3C//DTD SVG 1.1//EN" "http://www.w3.org/Graphics/SVG/1.1/DTD/svg11.dtd">
<svg version="1.1" id="Layer_1" xmlns="http://www.w3.org/2000/svg" xmlns:xlink="http://www.w3.org/1999/xlink" x="0px" y="0px"
	 width="24px" height="24px" viewBox="0 0 24 24" enable-background="new 0 0 24 24" xml:space="preserve">
<ellipse fill="#1D1D1B" cx="12" cy="5.25" rx="8" ry="3"/>
<path fill="#1D1D1B" d="M12,10c-4.418,0-8-1.343-8-3v3c0,1.657,3.582,3,8,3s8-1.343,8-3V7C20,8.657,16.418,10,12,10z"/>
<path fill="#1D1D1B" d="M12,14.5c-4.418,0-8-1.343-8-3v3c0,1.657,3.582,3,8,3s8-1.343,8-3v-3C20,13.157,16.418,14.5,12,14.5z"/>
<path fill="#1D1D1B" d="M12,19c-4.418,0-8-1.343-8-3v3c0,1.657,3.582,3,8,3s8-1.343,8-3v-3C20,17.657,16.418,19,12,19z"/>
</svg>
