<?xml version="1.0" encoding="utf-8"?>
<!-- Generator: Adobe Illustrator 16.0.0, SVG Export Plug-In . SVG Version: 6.00 Build 0)  -->
<!DOCTYPE svg PUBLIC "-//W3C//DTD SVG 1.1//EN" "http://www.w3.org/Graphics/SVG/1.1/DTD/svg11.dtd">
<svg version="1.1" id="Layer_1" xmlns="http://www.w3.org/2000/svg" xmlns:xlink="http://www.w3.org/1999/xlink" x="0px" y="0px"
	 width="24px" height="24px" viewBox="0 0 24 24" enable-background="new 0 0 24 24" xml:space="preserve">
<g>
	<path d="M13.377,17.275h-3v-6.042l1.465-0.034c2.178-0.051,3.584-1.366,3.584-3.35c0-1.619-0.933-3.35-3.549-3.35
		c-1.08,0-1.879,0.286-2.442,0.875C8.691,6.152,8.468,7.347,8.503,8.133L5.505,8.265C5.442,6.821,5.872,4.759,7.268,3.301
		C8.396,2.123,9.989,1.5,11.877,1.5c3.855,0,6.549,2.611,6.549,6.35c0,3.164-2.014,5.547-5.049,6.183V17.275z"/>
</g>
<path d="M14,20.5c0,1.104-0.895,2-2,2l0,0c-1.105,0-2-0.896-2-2l0,0c0-1.104,0.895-2,2-2l0,0C13.105,18.5,14,19.396,14,20.5L14,20.5
	z"/>
</svg>
