<?xml version="1.0" encoding="utf-8"?>
<!-- Generator: Adobe Illustrator 16.0.0, SVG Export Plug-In . SVG Version: 6.00 Build 0)  -->
<!DOCTYPE svg PUBLIC "-//W3C//DTD SVG 1.1//EN" "http://www.w3.org/Graphics/SVG/1.1/DTD/svg11.dtd">
<svg version="1.1" id="Layer_1" xmlns="http://www.w3.org/2000/svg" xmlns:xlink="http://www.w3.org/1999/xlink" x="0px" y="0px"
	 width="24px" height="24px" viewBox="0 0 24 24" enable-background="new 0 0 24 24" xml:space="preserve">
<g>
	<path d="M13.4,17.3h-3v-6l1.5,0c2.2-0.1,3.6-1.4,3.6-3.4c0-1.6-0.9-3.3-3.5-3.3c-1.1,0-1.9,0.3-2.4,0.9c-0.7,0.8-1,2-0.9,2.8
		l-3,0.1c-0.1-1.4,0.4-3.5,1.8-5c1.1-1.2,2.7-1.8,4.6-1.8c3.9,0,6.5,2.6,6.5,6.3c0,3.2-2,5.5-5,6.2V17.3z"/>
</g>
<path d="M14,20.5c0,1.1-0.9,2-2,2l0,0c-1.1,0-2-0.9-2-2l0,0c0-1.1,0.9-2,2-2l0,0C13.1,18.5,14,19.4,14,20.5L14,20.5z"/>
</svg>
