<?xml version="1.0" encoding="utf-8"?>
<!-- Generator: Adobe Illustrator 16.0.0, SVG Export Plug-In . SVG Version: 6.00 Build 0)  -->
<!DOCTYPE svg PUBLIC "-//W3C//DTD SVG 1.1//EN" "http://www.w3.org/Graphics/SVG/1.1/DTD/svg11.dtd">
<svg version="1.1" id="Layer_1" xmlns="http://www.w3.org/2000/svg" xmlns:xlink="http://www.w3.org/1999/xlink" x="0px" y="0px"
	 width="24px" height="24px" viewBox="0 0 24 24" enable-background="new 0 0 24 24" xml:space="preserve">
<path fill="#1D1D1B" d="M18.2,11l-4.7,10.1C13.2,21.6,12.6,22,12,22c-0.6,0-1.2-0.4-1.5-0.9L5.8,11c-0.3-0.7-0.4-1.5-0.4-2.3
	C5.3,5,8.3,2,12,2c3.7,0,6.7,3,6.7,6.7C18.7,9.5,18.6,10.3,18.2,11z M12,5.3c-1.8,0-3.3,1.5-3.3,3.3c0,1.8,1.5,3.3,3.3,3.3
	c1.8,0,3.3-1.5,3.3-3.3C15.3,6.8,13.8,5.3,12,5.3z"/>
</svg>
