<?xml version="1.0" encoding="utf-8"?>
<!-- Generator: Adobe Illustrator 16.0.0, SVG Export Plug-In . SVG Version: 6.00 Build 0)  -->
<!DOCTYPE svg PUBLIC "-//W3C//DTD SVG 1.1//EN" "http://www.w3.org/Graphics/SVG/1.1/DTD/svg11.dtd">
<svg version="1.1" id="Layer_1" xmlns="http://www.w3.org/2000/svg" xmlns:xlink="http://www.w3.org/1999/xlink" x="0px" y="0px"
	 width="24px" height="24px" viewBox="0 0 24 24" enable-background="new 0 0 24 24" xml:space="preserve">
<path fill="#1D1D1B" d="M6.75,22c0-1.101,0.902-2.001,2.003-2.001h6.495c1.1,0,2.002,0.9,2.002,2.001c0,1.1-0.902,2-2.002,2H8.753
	C7.652,24,6.75,23.1,6.75,22 M6.75,16.999c0,1.102,0.902,2.002,2.003,2.002h6.495c1.1,0,2.002-0.9,2.002-2.002
	c0-1.099-0.902-1.999-2.002-1.999H8.753C7.652,15,6.75,15.899,6.75,16.999 M15.248,0c-1.104,0-1.995,0.896-1.995,1.999v3.256
	L10.427,0.91c-0.005-0.004-0.009-0.012-0.009-0.016c-0.007-0.009-0.014-0.018-0.021-0.024c-0.072-0.11-0.146-0.202-0.227-0.278
	c-0.01-0.007-0.013-0.013-0.022-0.022c-0.01-0.005-0.013-0.013-0.022-0.02C9.765,0.21,9.284,0,8.753,0
	C7.647,0,6.75,0.896,6.75,1.999V12c0,1.105,0.897,1.998,2.003,1.998c1.103,0,1.994-0.893,1.994-1.998V8.748l2.826,4.341
	c0.006,0.007,0.009,0.014,0.011,0.019c0.005,0.008,0.011,0.013,0.017,0.021c0.075,0.109,0.149,0.202,0.231,0.281
	c0.008,0.003,0.008,0.011,0.016,0.014c0.013,0.011,0.019,0.02,0.031,0.028c0.359,0.338,0.84,0.546,1.369,0.546
	c1.105,0,2.002-0.893,2.002-1.998V1.999C17.25,0.896,16.354,0,15.248,0"/>
</svg>
