<?xml version="1.0" encoding="utf-8"?>
<!-- Generator: Adobe Illustrator 16.0.0, SVG Export Plug-In . SVG Version: 6.00 Build 0)  -->
<!DOCTYPE svg PUBLIC "-//W3C//DTD SVG 1.1//EN" "http://www.w3.org/Graphics/SVG/1.1/DTD/svg11.dtd">
<svg version="1.1" id="Layer_1" xmlns="http://www.w3.org/2000/svg" xmlns:xlink="http://www.w3.org/1999/xlink" x="0px" y="0px"
	 width="24px" height="24px" viewBox="0 0 24 24" enable-background="new 0 0 24 24" xml:space="preserve">
<path fill="#1D1D1B" d="M6.8,22c0-1.1,0.9-2,2-2h6.5c1.1,0,2,0.9,2,2c0,1.1-0.9,2-2,2H8.8C7.7,24,6.8,23.1,6.8,22 M6.8,17
	c0,1.1,0.9,2,2,2h6.5c1.1,0,2-0.9,2-2c0-1.1-0.9-2-2-2H8.8C7.7,15,6.8,15.9,6.8,17 M15.2,0c-1.1,0-2,0.9-2,2v3.3l-2.8-4.3
	c0,0,0,0,0,0c0,0,0,0,0,0c-0.1-0.1-0.1-0.2-0.2-0.3c0,0,0,0,0,0c0,0,0,0,0,0C9.8,0.2,9.3,0,8.8,0c-1.1,0-2,0.9-2,2v10
	c0,1.1,0.9,2,2,2c1.1,0,2-0.9,2-2V8.7l2.8,4.3c0,0,0,0,0,0c0,0,0,0,0,0c0.1,0.1,0.1,0.2,0.2,0.3c0,0,0,0,0,0c0,0,0,0,0,0
	c0.4,0.3,0.8,0.5,1.4,0.5c1.1,0,2-0.9,2-2V2C17.2,0.9,16.4,0,15.2,0"/>
</svg>
