<?xml version="1.0" encoding="utf-8"?>
<!-- Generator: Adobe Illustrator 16.0.0, SVG Export Plug-In . SVG Version: 6.00 Build 0)  -->
<!DOCTYPE svg PUBLIC "-//W3C//DTD SVG 1.1//EN" "http://www.w3.org/Graphics/SVG/1.1/DTD/svg11.dtd">
<svg version="1.1" id="Layer_1" xmlns="http://www.w3.org/2000/svg" xmlns:xlink="http://www.w3.org/1999/xlink" x="0px" y="0px"
	 width="24px" height="24px" viewBox="0 0 24 24" enable-background="new 0 0 24 24" xml:space="preserve">
<path fill="#231F20" d="M22.5,19.2c-0.5-0.7-1-1.6-1.2-2.3c-1.1-3.1-1.1-3.3-1.6-4.7c-0.1-0.4-0.2-1.9-0.9-2.1
	c-0.1-0.9-0.3-1.8-1.1-1.8c-0.1-0.6-0.3-1.2-0.6-1.5C16.5,6,15.2,7,15.2,7s0.2-0.3-0.1-1.1c-0.2-0.8-0.9-2.1-1.2-2.9
	c-0.3-0.9-0.4-1.6-0.8-1.7c-0.4,0-0.7,0.4-0.9,1.1c-0.2,0.9,0.2,2.7,0.2,4.2c0,0.7,0.1,1.7,0.2,2c0.1,0.8-0.4,1.3-0.5,2.1
	c-0.1,0.6-0.3,4.2-2.4,4.7c-1.2,0.3-2.3-0.3-3.5-0.7c-0.8-0.2-3.1-0.2-3.5,1.1c-0.5,1.5,3.8,1.8,4.9,2.7c0.4,0.3,1.5,0.9,2.6,1.6
	c0.7,0.5,1.3,1.1,2.1,1.5c1.1,0.6,2.1,0.8,2.8,1.1c0.4,0.1,1.2,0.6,1.7,1.1C18,24.9,23.7,20.7,22.5,19.2z"/>
<path fill="#231F20" d="M11.9,4.3L11.9,4.3L12,3.3l0,0c-0.3-0.3-0.4-0.6-0.4-1c0-0.8,0.6-1.4,1.4-1.4c0.8,0,1.4,0.6,1.4,1.4
	c0,0.3-0.1,0.6-0.2,0.8l0,0l0.3,0.4L15.7,0c-0.1-0.3-6.1,0.8-6.1,0.8L11,2.3c0,0-0.9,0.8-1.7,1.9C8.1,5.8,6.8,7.8,6.8,7.8
	s1.8-1.7,3.4-2.7C10.8,4.7,11.4,4.4,11.9,4.3z"/>
<path fill="#231F20" d="M3.8,17.5c-0.1,0-0.1,0-0.2,0c-0.8,0-1.4-0.6-1.4-1.4s0.6-1.4,1.4-1.4c0,0,0.4,0,0.9-0.2
	c0.5-0.2,0.6-0.4,0.6-0.4l0,0c0.1-0.6,0.3-1.5,0.5-2.4C6.1,9.9,6.7,8,6.7,8s-1.2,1.5-2.2,3c-0.9,1.3-1.6,2.7-1.6,2.7l-1.6-0.4
	c0,0,0.7,5.5,1,5.6c0.1,0,0.8-0.5,1.6-1.2L3.8,17.5L3.8,17.5z"/>
</svg>
