<?xml version="1.0" encoding="utf-8"?>
<!-- Generator: Adobe Illustrator 16.0.0, SVG Export Plug-In . SVG Version: 6.00 Build 0)  -->
<!DOCTYPE svg PUBLIC "-//W3C//DTD SVG 1.1//EN" "http://www.w3.org/Graphics/SVG/1.1/DTD/svg11.dtd">
<svg version="1.1" id="Layer_1" xmlns="http://www.w3.org/2000/svg" xmlns:xlink="http://www.w3.org/1999/xlink" x="0px" y="0px"
	 width="24px" height="24px" viewBox="0 0 24 24" enable-background="new 0 0 24 24" xml:space="preserve">
<g>
	<path d="M13,20c-2.135,0-4.143-0.832-5.656-2.342l1.413-1.416C9.893,17.376,11.399,18,13,18s3.107-0.624,4.243-1.758
		C18.376,15.111,19,13.604,19,12s-0.624-3.111-1.757-4.242C16.107,6.624,14.601,6,13,6S9.893,6.624,8.757,7.758
		C7.624,8.889,7,10.396,7,12H5c0-2.14,0.832-4.148,2.344-5.658C8.857,4.832,10.865,4,13,4s4.143,0.832,5.656,2.342
		C20.168,7.852,21,9.86,21,12s-0.832,4.148-2.344,5.658C17.143,19.168,15.135,20,13,20z"/>
</g>
<g>
	<polygon points="6.053,16.362 1.85,12.759 3.15,11.241 5.947,13.638 8.293,11.293 9.707,12.707 	"/>
</g>
<g>
	<rect x="5" y="12" width="2" height="2"/>
</g>
</svg>
