<?xml version="1.0" encoding="utf-8"?>
<!-- Generator: Adobe Illustrator 16.0.0, SVG Export Plug-In . SVG Version: 6.00 Build 0)  -->
<!DOCTYPE svg PUBLIC "-//W3C//DTD SVG 1.1//EN" "http://www.w3.org/Graphics/SVG/1.1/DTD/svg11.dtd">
<svg version="1.1" id="Layer_1" xmlns="http://www.w3.org/2000/svg" xmlns:xlink="http://www.w3.org/1999/xlink" x="0px" y="0px"
	 width="24px" height="24px" viewBox="0 0 24 24" enable-background="new 0 0 24 24" xml:space="preserve">
<g>
	<path d="M13,20c-2.1,0-4.1-0.8-5.7-2.3l1.4-1.4C9.9,17.4,11.4,18,13,18s3.1-0.6,4.2-1.8c1.1-1.1,1.8-2.6,1.8-4.2s-0.6-3.1-1.8-4.2
		C16.1,6.6,14.6,6,13,6S9.9,6.6,8.8,7.8C7.6,8.9,7,10.4,7,12H5c0-2.1,0.8-4.1,2.3-5.7C8.9,4.8,10.9,4,13,4s4.1,0.8,5.7,2.3
		C20.2,7.9,21,9.9,21,12s-0.8,4.1-2.3,5.7C17.1,19.2,15.1,20,13,20z"/>
</g>
<g>
	<polygon points="6.1,16.4 1.8,12.8 3.2,11.2 5.9,13.6 8.3,11.3 9.7,12.7 	"/>
</g>
<g>
	<rect x="5" y="12" width="2" height="2"/>
</g>
</svg>
