<?xml version="1.0" encoding="utf-8"?>
<!-- Generator: Adobe Illustrator 16.0.0, SVG Export Plug-In . SVG Version: 6.00 Build 0)  -->
<!DOCTYPE svg PUBLIC "-//W3C//DTD SVG 1.1//EN" "http://www.w3.org/Graphics/SVG/1.1/DTD/svg11.dtd">
<svg version="1.1" id="Layer_1" xmlns="http://www.w3.org/2000/svg" xmlns:xlink="http://www.w3.org/1999/xlink" x="0px" y="0px"
	 width="24px" height="24px" viewBox="0 0 24 24" enable-background="new 0 0 24 24" xml:space="preserve">
<polygon fill="#1D1D1B" points="8,17 8,4 6,4 6,17 4,17 7,20 10,17 "/>
<polygon fill="#1D1D1B" points="16.5,11.014 15.25,11.014 15.25,4.264 13.5,4.264 13.5,3.014 16.5,3.014 "/>
<path fill="#1D1D1B" d="M17.5,15.52c0-1.1-0.9-2-2-2s-2,0.9-2,2v0.75c0,1.1,0.9,2,2,2c0.263,0,0.512-0.055,0.742-0.147v0.263
	c0,0.678-0.47,1.377-1.044,1.377h-1.184v1.25h1.184c1.273,0,2.294-1.248,2.294-2.627V16.51h-0.017c0.01-0.08,0.024-0.158,0.024-0.24
	V15.52z M15.5,17.02c-0.406,0-0.75-0.344-0.75-0.75v-0.75c0-0.406,0.344-0.75,0.75-0.75s0.75,0.344,0.75,0.75v0.75
	C16.25,16.676,15.906,17.02,15.5,17.02z"/>
</svg>
