<?xml version="1.0" encoding="utf-8"?>
<!-- Generator: Adobe Illustrator 16.0.0, SVG Export Plug-In . SVG Version: 6.00 Build 0)  -->
<!DOCTYPE svg PUBLIC "-//W3C//DTD SVG 1.1//EN" "http://www.w3.org/Graphics/SVG/1.1/DTD/svg11.dtd">
<svg version="1.1" id="Layer_1" xmlns="http://www.w3.org/2000/svg" xmlns:xlink="http://www.w3.org/1999/xlink" x="0px" y="0px"
	 width="24px" height="24px" viewBox="0 0 24 24" enable-background="new 0 0 24 24" xml:space="preserve">
<polygon fill="#1D1D1B" points="8,17 8,4 6,4 6,17 4,17 7,20 10,17 "/>
<polygon fill="#1D1D1B" points="16.5,11 15.2,11 15.2,4.3 13.5,4.3 13.5,3 16.5,3 "/>
<path fill="#1D1D1B" d="M17.5,15.5c0-1.1-0.9-2-2-2s-2,0.9-2,2v0.8c0,1.1,0.9,2,2,2c0.3,0,0.5-0.1,0.7-0.1v0.3c0,0.7-0.5,1.4-1,1.4
	H14V21h1.2c1.3,0,2.3-1.2,2.3-2.6v-1.9h0c0-0.1,0-0.2,0-0.2V15.5z M15.5,17c-0.4,0-0.8-0.3-0.8-0.8v-0.8c0-0.4,0.3-0.8,0.8-0.8
	s0.8,0.3,0.8,0.8v0.8C16.2,16.7,15.9,17,15.5,17z"/>
</svg>
