<?xml version="1.0" encoding="utf-8"?>
<!-- Generator: Adobe Illustrator 16.0.0, SVG Export Plug-In . SVG Version: 6.00 Build 0)  -->
<!DOCTYPE svg PUBLIC "-//W3C//DTD SVG 1.1//EN" "http://www.w3.org/Graphics/SVG/1.1/DTD/svg11.dtd">
<svg version="1.1" id="Layer_1" xmlns="http://www.w3.org/2000/svg" xmlns:xlink="http://www.w3.org/1999/xlink" x="0px" y="0px"
	 width="24px" height="24px" viewBox="0 0 24 24" enable-background="new 0 0 24 24" xml:space="preserve">
<path fill-rule="evenodd" clip-rule="evenodd" d="M20.2,11.7c0,1.2-0.2,2.4-0.5,3.5c-0.2,0.8-0.4,1.5-0.6,2.3
	c-0.1,0.3-0.2,0.4-0.5,0.3c-1.2-0.2-2.4-0.5-3.6-0.7c-0.3-0.1-0.4-0.2-0.4-0.5c0.1-0.8-0.1-1.6-0.5-2.4c-0.1-0.3-0.3-0.6-0.4-0.9
	c-0.2-0.5-0.3-1.1-0.2-1.6c0.1-1,0.1-2,0.4-2.9c0.2-0.8,0.6-1.5,1.2-2c1.4-1.1,3.5-0.6,4.3,1.1c0.4,0.9,0.6,1.9,0.7,2.9
	C20.2,11.1,20.3,11.4,20.2,11.7z"/>
<path fill-rule="evenodd" clip-rule="evenodd" d="M6.4,1c1.3,0,2.3,0.6,2.8,1.8c0.4,0.8,0.5,1.7,0.6,2.6c0,0.4,0.1,0.8,0.1,1.2
	C10,7.3,9.8,8,9.5,8.7c-0.2,0.5-0.5,1-0.6,1.6c-0.1,0.4-0.1,0.8-0.1,1.2c0,0.3-0.1,0.4-0.4,0.5c-1.2,0.3-2.4,0.5-3.7,0.7
	c-0.3,0.1-0.4,0-0.5-0.4c-0.5-1.6-0.9-3.3-1-5c-0.1-1.5,0-3.1,0.6-4.5C4.2,2,4.8,1.3,5.7,1.1C5.9,1,6.2,1,6.4,1z"/>
<path fill-rule="evenodd" clip-rule="evenodd" d="M9.8,16.5c0,0.3,0,0.6-0.1,0.9c-0.1,0.3-0.3,0.6-0.6,0.7c-0.6,0.3-1.9,0.6-2.8-0.1
	c-0.4-0.4-0.7-0.8-0.9-1.3c-0.3-0.7-0.5-1.4-0.6-2.1c-0.1-0.3,0-0.5,0.3-0.5c1.2-0.3,2.4-0.5,3.7-0.7c0.2,0,0.4,0,0.4,0.2
	C9.5,14.5,9.7,15.4,9.8,16.5z"/>
<path fill-rule="evenodd" clip-rule="evenodd" d="M13.7,21.7c0-1,0.3-2,0.6-2.9c0.1-0.2,0.2-0.3,0.6-0.2c0.7,0.1,1.3,0.3,2,0.4
	c0.5,0.1,1,0.2,1.4,0.3c0.5,0.1,0.6,0.2,0.4,0.7c-0.2,0.8-0.4,1.5-0.7,2.2c-0.3,0.7-0.8,1.3-1.7,1.5c-0.5,0.1-1.1,0-1.6-0.2
	c-0.7-0.3-1-0.8-1-1.5C13.7,21.9,13.7,21.8,13.7,21.7z"/>
</svg>
