<?xml version="1.0" standalone="no"?>
<!DOCTYPE svg PUBLIC "-//W3C//DTD SVG 1.1//EN" "http://www.w3.org/Graphics/SVG/1.1/DTD/svg11.dtd" >
<svg xmlns="http://www.w3.org/2000/svg">
<metadata>Generated by IcoMoon</metadata>
<defs>
<font id="app2" horiz-adv-x="512">
<font-face units-per-em="512" ascent="480" descent="-32" />
<missing-glyph horiz-adv-x="512" />
<glyph unicode="&#x20;" d="" horiz-adv-x="256" />
<glyph unicode="&#xe600;" d="M144-0c0 23.488 19.243 42.688 42.731 42.688h138.56c23.466 0 42.709-19.2 42.709-42.688 0-23.466-19.243-42.666-42.709-42.666h-138.56c-23.488 0-42.731 19.2-42.731 42.666zM144 106.688c0-23.51 19.243-42.709 42.731-42.709h138.56c23.466 0 42.709 19.2 42.709 42.709 0 23.445-19.243 42.646-42.709 42.646h-138.56c-23.488 0-42.731-19.178-42.731-42.645zM325.291 469.333c-23.552 0-42.56-19.114-42.56-42.645v-69.462l-60.288 92.693c-0.107 0.086-0.192 0.256-0.192 0.341-0.149 0.192-0.298 0.384-0.448 0.512-1.536 2.347-3.114 4.31-4.843 5.931-0.214 0.149-0.278 0.277-0.47 0.469-0.214 0.106-0.278 0.277-0.47 0.426-7.702 7.254-17.963 11.733-29.291 11.733-23.595 0-42.731-19.114-42.731-42.645v-213.355c0-23.574 19.136-42.624 42.731-42.624 23.53 0 42.538 19.050 42.538 42.624v69.376l60.288-92.608c0.128-0.149 0.192-0.298 0.235-0.406 0.106-0.171 0.235-0.277 0.363-0.448 1.6-2.325 3.178-4.31 4.928-5.995 0.171-0.064 0.171-0.235 0.341-0.298 0.277-0.235 0.406-0.426 0.661-0.598 7.659-7.211 17.92-11.648 29.205-11.648 23.574 0 42.709 19.050 42.709 42.624v213.355c0 23.531-19.115 42.645-42.709 42.645z" />
<glyph unicode="&#xe601;" d="M405.334 192h64l-202.666 213.334-202.667-213.334h64v-170.666h106.667v128h64v-128h106.666z" />
<glyph unicode="&#xe602;" d="M192 85.333c-105.856 0-192 86.123-192 192s86.144 192 192 192 192-86.144 192-192-86.144-192-192-192zM192 426.667c-82.347 0-149.333-66.986-149.333-149.333 0-82.326 66.987-149.334 149.333-149.334s149.333 66.986 149.333 149.334c0 82.326-66.986 149.333-149.333 149.333zM360.84 168.838l138.66-138.659-60.339-60.339-138.66 138.66 60.339 60.339z" />
<glyph unicode="&#xe603;" d="M285.376 100.8h-64v128.896l31.254 0.726c46.464 1.088 76.458 29.142 76.458 71.466 0 34.538-19.904 71.466-75.712 71.466-23.040 0-40.085-6.101-52.096-18.667-15.872-16.597-20.63-42.090-19.882-58.858l-63.958-2.816c-1.344 30.805 7.829 74.794 37.611 105.899 24.064 25.13 58.048 38.421 98.326 38.421 82.24 0 139.712-55.702 139.712-135.466 0-67.499-42.966-118.336-107.712-131.904v-69.163zM298.666 32c0-23.552-19.094-42.666-42.666-42.666v0c-23.573 0-42.666 19.115-42.666 42.666v0c0 23.552 19.094 42.666 42.666 42.666v0c23.574 0 42.666-19.115 42.666-42.666v0z" />
<glyph unicode="&#xe604;" d="M106.666 405.333h298.666v-64h-298.666v64zM106.666 256h298.666v-64h-298.666v64zM106.666 106.667h298.666v-64h-298.666v64z" />
<glyph unicode="&#xe605;" d="M358.245 345.752l30.169-30.17-234.659-234.659-30.169 30.169 234.659 234.659zM153.755 345.752l234.659-234.659-30.169-30.169-234.659 234.659 30.169 30.169z" />
<glyph unicode="&#xe606;" d="M234.667 426.667h42.667v-245.334h-42.666v245.334zM256 140.501l-143.083 143.083 30.166 30.166 112.917-112.918 112.918 112.918 30.166-30.166zM288 53.333c0-17.673-14.327-32-32-32s-32 14.327-32 32c0 17.673 14.327 32 32 32s32-14.327 32-32zM192 53.333c0-17.673-14.327-32-32-32s-32 14.327-32 32c0 17.673 14.327 32 32 32s32-14.327 32-32zM384 53.333c0-17.673-14.327-32-32-32s-32 14.327-32 32c0 17.673 14.327 32 32 32s32-14.327 32-32z" />
<glyph unicode="&#xe607;" d="M388.267 234.667l-100.267-215.467c-6.4-10.666-19.2-19.2-32-19.2s-25.6 8.534-32 19.2l-100.266 215.467c-6.4 14.934-8.534 32-8.534 49.066-2.133 78.933 61.867 142.933 140.8 142.933s142.933-64 142.933-142.933c0-17.066-2.134-34.133-10.666-49.066zM256 356.267c-38.4 0-70.4-32-70.4-70.4s32-70.4 70.4-70.4c38.4 0 70.4 32 70.4 70.4s-32 70.4-70.4 70.4z" />
<glyph unicode="&#xe608;" d="M234.667 341.333h42.667v-245.334h-42.666v245.334zM256 55.168l-143.083 143.083 30.166 30.166 112.917-112.918 112.918 112.918 30.166-30.166z" />
<glyph unicode="&#xe609;" d="M138.667 234.667h245.333v-42.667h-245.333v42.667zM240.917 70.251l-143.083 143.083 143.083 143.082 30.165-30.165-112.918-112.918 112.918-112.918z" />
<glyph unicode="&#xe60a;" d="M128 234.667h245.333v-42.667h-245.333v42.667zM271.082 70.251l-30.166 30.166 112.918 112.918-112.918 112.918 30.166 30.166 143.082-143.083z" />
<glyph unicode="&#xe60b;" d="M234.667 330.667h42.667v-245.334h-42.666v245.334zM368.918 198.251l-112.918 112.918-112.918-112.918-30.166 30.166 143.083 143.083 143.083-143.083z" />
<glyph unicode="&#xe60c;" d="M283.584 91.584l-121.75 121.75 121.75 121.75 30.166-30.166-91.584-91.584 91.584-91.584z" />
<glyph unicode="&#xe60d;" d="M256 119.168l-121.75 121.75 30.166 30.166 91.584-91.584 91.584 91.584 30.166-30.166z" />
<glyph unicode="&#xe60e;" d="M228.416 91.584l-30.166 30.166 91.584 91.584-91.584 91.584 30.166 30.166 121.75-121.75z" />
<glyph unicode="&#xe60f;" d="M347.584 155.584l-91.584 91.584-91.584-91.584-30.166 30.166 121.75 121.75 121.75-121.75z" />
<glyph unicode="&#xe610;" d="M341.354 384h-21.334v42.667h170.667v-21.334h-149.333zM490.688 21.333h-170.667v149.333h170.667v-21.334h-149.333v-106.666h149.333zM341.354 85.333h-170.688v106.666h21.334v-85.334h149.355zM149.333 197.333h-128v53.334h128c2.901 0 5.333 2.453 5.333 5.333v64c0 32.384 26.304 58.666 58.666 58.666h85.355c32.341 0 58.666-26.283 58.666-58.666 0-2.88 2.411-5.334 5.334-5.334h61.291v-53.333h-61.291c-32.384 0-58.666 26.282-58.666 58.666 0 2.923-2.454 5.334-5.334 5.334h-85.355c-2.901 0-5.333-2.411-5.333-5.334v-64c0-32.384-26.304-58.667-58.666-58.667zM406.101 226.837l105.92 61.162-105.92 61.163z" />
<glyph unicode="&#xe611;" d="M256 183.168l-111.082 111.082 30.166 30.166 80.918-80.918 80.918 80.918 30.166-30.166zM256 65.835l-111.082 111.082 30.166 30.166 80.918-80.918 80.918 80.918 30.166-30.166z" />
<glyph unicode="&#xe612;" d="M336.918 102.251l-111.082 111.082 111.082 111.083 30.166-30.166-80.918-80.918 80.918-80.918zM219.584 102.251l-111.082 111.082 111.082 111.083 30.166-30.166-80.918-80.918 80.918-80.918z" />
<glyph unicode="&#xe613;" d="M175.083 102.251l-30.166 30.166 80.917 80.918-80.918 80.918 30.166 30.166 111.082-111.083zM292.416 102.251l-30.166 30.166 80.918 80.918-80.918 80.918 30.166 30.166 111.082-111.083z" />
<glyph unicode="&#xe614;" d="M336.918 102.251l-80.918 80.918-80.918-80.918-30.166 30.166 111.082 111.083 111.082-111.083zM336.918 219.584l-80.918 80.918-80.918-80.918-30.166 30.166 111.082 111.082 111.082-111.082z" />
<glyph unicode="&#xe615;" d="M21.334 448h85.334v-85.334h-85.334v85.334zM128 426.667h192v-42.666h-192v42.666zM405.334 320h85.334v-85.333h-85.334v85.334zM192 298.667h192v-42.667h-192v42.667zM405.334 192h85.334v-85.334h-85.334v85.334zM192 170.667h192v-42.666h-192v42.666zM405.334 64h85.334v-85.334h-85.334v85.334zM192 42.667h192v-42.666h-192v42.666z" />
<glyph unicode="&#xe616;" d="M160.341 106.667h180.992v180.992z" />
<glyph unicode="&#xe617;" d="M128 277.333l128-128 128 128z" />
<glyph unicode="&#xe618;" d="M320 341.333l-128-128 128-128z" />
<glyph unicode="&#xe619;" d="M192 85.333l128 128-128 128z" />
<glyph unicode="&#xe61a;" d="M384 149.333l-128 128-128-128z" />
<glyph unicode="&#xe61b;" d="M405.334 64h-42.666c0 117.632-95.702 213.334-213.333 213.334v42.666c141.162 0 256-114.838 256-256zM171.328 194.517l-71.019 123.008 123.008 70.997 21.334-36.971-86.037-49.664 49.685-86.037z" />
<glyph unicode="&#xe61c;" d="M261.334 320h10.666v-202.667h-10.666v202.667zM266.666 99.115l-89.109 89.109 7.552 7.552 81.558-81.558 81.558 81.558 7.552-7.552z" />
<glyph unicode="&#xe61d;" d="M149.333 64h-42.666c0 141.162 114.838 256 256 256v-42.666c-117.632 0-213.333-95.702-213.333-213.334zM340.693 194.517l-36.971 21.334 49.685 86.038-86.037 49.664 21.334 36.971 123.008-70.998z" />
<glyph unicode="&#xe61e;" d="M160 229.333h202.667v-10.667h-202.667v10.667zM230.891 134.891l-89.109 89.11 89.109 89.109 7.552-7.552-81.558-81.558 81.558-81.558z" />
<glyph unicode="&#xe61f;" d="M149.333 229.333h202.667v-10.667h-202.667v10.667zM281.11 134.891l-7.552 7.552 81.558 81.558-81.558 81.558 7.552 7.552 89.11-89.109z" />
<glyph unicode="&#xe620;" d="M261.334 309.333h10.666v-202.667h-10.666v202.667zM348.224 230.891l-81.558 81.558-81.558-81.558-7.552 7.552 89.109 89.109 89.109-89.109z" />
<glyph unicode="&#xe621;" d="M152 176c0-57.43 46.571-104 104-104s104 46.57 104 104-46.57 104-104 104-104-46.57-104-104zM480 352h-112c-8 32-16 64-48 64h-128c-32 0-40-32-48-64h-112c-17.6 0-32-14.4-32-32v-288c0-17.6 14.4-32 32-32h448c17.6 0 32 14.4 32 32v288c0 17.6-14.4 32-32 32zM256 34.005c-78.421 0-141.994 63.574-141.994 141.995s63.573 141.995 141.994 141.995 141.995-63.573 141.995-141.995-63.574-141.995-141.995-141.995zM490.666 256h-64v42.666h64v-42.666z" />
<glyph unicode="&#xe622;" d="M233.707 109.483l-110.123 110.101 30.166 30.166 81.877-81.899 155.67 136.214 28.075-32.128z" />
<glyph unicode="&#xe623;" d="M426.666 357.333c0-35.346-76.41-64-170.667-64s-170.667 28.654-170.667 64c0 35.346 76.41 64 170.667 64s170.667-28.654 170.667-64zM256 256c-94.25 0-170.667 28.651-170.667 64v-64c0-35.35 76.416-64 170.667-64s170.667 28.651 170.667 64v64c0-35.35-76.416-64-170.667-64zM256 160c-94.25 0-170.667 28.651-170.667 64v-64c0-35.349 76.416-64 170.667-64s170.667 28.651 170.667 64v64c0-35.349-76.416-64-170.667-64zM256 64c-94.25 0-170.667 28.651-170.667 64v-64c0-35.349 76.416-64 170.667-64s170.667 28.651 170.667 64v64c0-35.349-76.416-64-170.667-64z" />
<glyph unicode="&#xe624;" d="M256 405.333c-106.133 0-192-85.867-192-192s85.867-192 192-192 192 85.866 192 192-85.866 192-192 192zM202.667 106.667v213.334l149.333-106.667-149.333-106.666z" />
<glyph unicode="&#xe625;" d="M277.334 42.667c-45.547 0-88.384 17.75-120.661 49.962l30.144 30.208c24.234-24.192 56.363-37.504 90.517-37.504s66.282 13.312 90.517 37.504c24.171 24.128 37.483 56.278 37.483 90.496s-13.312 66.368-37.483 90.496c-24.235 24.192-56.363 37.504-90.517 37.504s-66.282-13.312-90.517-37.504c-24.171-24.128-37.483-56.278-37.483-90.496h-42.666c0 45.654 17.749 88.491 50.005 120.704 32.278 32.214 75.115 49.963 120.661 49.963s88.384-17.75 120.661-49.963c32.256-32.213 50.005-75.050 50.005-120.704s-17.75-88.49-50.005-120.704c-32.278-32.214-75.115-49.962-120.661-49.962zM129.131 120.277l-89.664 76.864 27.734 32.384 59.669-51.136 50.048 50.027 30.166-30.166zM106.666 213.333h42.666v-42.666h-42.666v42.666z" />
<glyph unicode="&#xe626;" d="M170.667 106.667v277.334h-42.667v-277.334h-42.666l64-64 64 64zM352 234.368h-26.666v144h-37.334v26.666h64zM373.334 138.24c0 23.466-19.2 42.666-42.666 42.666s-42.666-19.2-42.666-42.666v-16c0-23.466 19.2-42.666 42.666-42.666 5.611 0 10.923 1.173 15.829 3.136v-5.611c0-14.464-10.026-29.376-22.272-29.376h-25.259v-26.666h25.259c27.158 0 48.938 26.624 48.938 56.043v40.022h-0.363c0.214 1.707 0.512 3.37 0.512 5.12v16zM330.666 106.24c-8.661 0-16 7.339-16 16v16c0 8.661 7.339 16 16 16s16-7.339 16-16v-16c0-8.661-7.339-16-16-16z" />
<glyph unicode="&#xe627;" d="M170.667 106.667v277.334h-42.667v-277.334h-42.666l64-64 64 64zM352 21.333h-26.666v144h-37.334v26.666h64zM373.334 362.667c0 23.466-19.2 42.667-42.666 42.667s-42.666-19.2-42.666-42.667v-16c0-23.466 19.2-42.666 42.666-42.666 5.611 0 10.923 1.173 15.829 3.136v-5.611c0-14.464-10.026-29.376-22.272-29.376h-25.259v-26.667h25.259c27.158 0 48.938 26.624 48.938 56.042v40.022h-0.363c0.214 1.707 0.512 3.37 0.512 5.12v16zM330.666 330.667c-8.661 0-16 7.339-16 16v16c0 8.661 7.339 16 16 16s16-7.339 16-16v-16c0-8.661-7.339-16-16-16z" />
<glyph unicode="&#xe628;" d="M170.667 106.667v277.334h-42.667v-277.334h-42.666l64-64 64 64zM311.296 53.333l72.704 112.875v25.792h-117.334v-32h72.704l-72.704-112.853v-25.813h117.334v32zM327.062 405.333h-14.123l-78.272-160h32l21.589 45.333h63.51l21.568-45.333h32l-78.272 160zM300.95 317.333l19.050 40 19.050-40h-38.101z" />
<glyph unicode="&#xe629;" d="M170.667 106.667v277.334h-42.667v-277.334h-42.666l64-64 64 64zM311.296 266.667l72.704 112.875v25.792h-117.334v-32h72.704l-72.704-112.853v-25.813h117.334v32zM327.062 181.333h-14.123l-78.272-160h32l21.589 45.334h63.51l21.568-45.334h32l-78.272 160zM300.95 93.333l19.050 40 19.050-40h-38.101z" />
<glyph unicode="&#xe62a;" d="M170.667 106.667v277.334h-42.667v-277.334h-42.666l64-64 64 64zM234.667 384h192v-42.666h-192v42.666zM234.667 298.667h149.333v-42.667h-149.333v42.667zM234.667 213.333h106.667v-42.666h-106.666v42.666z" />
<glyph unicode="&#xe62b;" d="M170.667 106.667v277.334h-42.667v-277.334h-42.666l64-64 64 64zM234.667 213.333h192v-42.666h-192v42.666zM234.667 298.667h149.333v-42.667h-149.333v42.667zM234.667 384h106.667v-42.666h-106.666v42.666z" />
<glyph unicode="&#xe62c;" d="M426.666 384v-341.334h-341.334v341.334h341.334zM469.334 426.667h-426.666v-426.666h426.666v426.666z" />
<glyph unicode="&#xe62d;" d="M469.334 426.667h-426.666v-426.666h426.666v426.666z" />
<glyph unicode="&#xe62e;" d="M21.334 277.333l106.666-106.667 106.666 106.667zM490.666 149.333l-106.666 106.667-106.666-106.667z" />
</font>
</defs>
</svg>
