<?xml version="1.0" encoding="utf-8"?>
<!-- Generated by IcoMoon.io -->
<!DOCTYPE svg PUBLIC "-//W3C//DTD SVG 1.1//EN" "http://www.w3.org/Graphics/SVG/1.1/DTD/svg11.dtd">
<svg version="1.1" xmlns="http://www.w3.org/2000/svg" xmlns:xlink="http://www.w3.org/1999/xlink" width="32" height="32" viewBox="0 0 32 32">
<path fill="#000000" d="M4.667 18c-0.4 0-0.667-0.267-0.667-0.667v-2.667c0-0.4 0.267-0.667 0.667-0.667s0.667 0.267 0.667 0.667v2.667c0 0.4-0.267 0.667-0.667 0.667z"></path>
<path fill="#000000" d="M7.333 20.667c-0.4 0-0.667-0.267-0.667-0.667v-8c0-0.4 0.267-0.667 0.667-0.667s0.667 0.267 0.667 0.667v8c0 0.4-0.267 0.667-0.667 0.667z"></path>
<path fill="#000000" d="M10 24.667c-0.4 0-0.667-0.267-0.667-0.667v-16c0-0.4 0.267-0.667 0.667-0.667s0.667 0.267 0.667 0.667v16c0 0.4-0.267 0.667-0.667 0.667z"></path>
<path fill="#000000" d="M12.667 20.667c-0.4 0-0.667-0.267-0.667-0.667v-8c0-0.4 0.267-0.667 0.667-0.667s0.667 0.267 0.667 0.667v8c0 0.4-0.267 0.667-0.667 0.667z"></path>
<path fill="#000000" d="M15.333 18c-0.4 0-0.667-0.267-0.667-0.667v-2.667c0-0.4 0.267-0.667 0.667-0.667s0.667 0.267 0.667 0.667v2.667c0 0.4-0.267 0.667-0.667 0.667z"></path>
<path fill="#000000" d="M18 21.333c-0.4 0-0.667-0.267-0.667-0.667v-9.333c0-0.4 0.267-0.667 0.667-0.667s0.667 0.267 0.667 0.667v9.333c0 0.4-0.267 0.667-0.667 0.667z"></path>
<path fill="#000000" d="M20.667 26c-0.4 0-0.667-0.267-0.667-0.667v-18.667c0-0.4 0.267-0.667 0.667-0.667s0.667 0.267 0.667 0.667v18.667c0 0.4-0.267 0.667-0.667 0.667z"></path>
<path fill="#000000" d="M23.333 21.333c-0.4 0-0.667-0.267-0.667-0.667v-9.333c0-0.4 0.267-0.667 0.667-0.667s0.667 0.267 0.667 0.667v9.333c0 0.4-0.267 0.667-0.667 0.667z"></path>
<path fill="#000000" d="M26 18c-0.4 0-0.667-0.267-0.667-0.667v-2.667c0-0.4 0.267-0.667 0.667-0.667s0.667 0.267 0.667 0.667v2.667c0 0.4-0.267 0.667-0.667 0.667z"></path>
</svg>
