<?xml version="1.0" encoding="utf-8"?>
<!-- Generated by IcoMoon.io -->
<!DOCTYPE svg PUBLIC "-//W3C//DTD SVG 1.1//EN" "http://www.w3.org/Graphics/SVG/1.1/DTD/svg11.dtd">
<svg version="1.1" xmlns="http://www.w3.org/2000/svg" xmlns:xlink="http://www.w3.org/1999/xlink" width="32" height="32" viewBox="0 0 32 32">
<path fill="#000000" d="M9.467 18.4c0 3.6 2.933 6.533 6.533 6.533s6.533-2.933 6.533-6.533-2.933-6.533-6.533-6.533-6.533 2.933-6.533 6.533zM30 7.333h-6.933c-0.533-2-1.067-4-2.933-4h-8.133c-2 0-2.533 2-2.933 4h-7.067c-1.067 0-2 0.933-2 2v18c0 1.067 0.933 2 2 2h28c1.067 0 2-0.933 2-2v-18c0-1.067-0.933-2-2-2zM16 27.2c-4.933 0-8.933-4-8.933-8.933s4-8.933 8.933-8.933 8.933 4 8.933 8.933-4 8.933-8.933 8.933zM30.667 13.333h-4v-2.667h4v2.667z"></path>
</svg>
