<?xml version="1.0" encoding="utf-8"?>
<!-- Generated by IcoMoon.io -->
<!DOCTYPE svg PUBLIC "-//W3C//DTD SVG 1.1//EN" "http://www.w3.org/Graphics/SVG/1.1/DTD/svg11.dtd">
<svg version="1.1" xmlns="http://www.w3.org/2000/svg" xmlns:xlink="http://www.w3.org/1999/xlink" width="32" height="32" viewBox="0 0 32 32">
<path fill="#000000" d="M26.667 6.933c0 2.209-4.776 4-10.667 4s-10.667-1.791-10.667-4c0-2.209 4.776-4 10.667-4s10.667 1.791 10.667 4z"></path>
<path fill="#000000" d="M16 13.333c-5.867 0-10.667-1.733-10.667-4v4c0 2.267 4.8 4 10.667 4s10.667-1.733 10.667-4v-4c0 2.267-4.8 4-10.667 4z"></path>
<path fill="#000000" d="M16 19.333c-5.867 0-10.667-1.733-10.667-4v4c0 2.267 4.8 4 10.667 4s10.667-1.733 10.667-4v-4c0 2.267-4.8 4-10.667 4z"></path>
<path fill="#000000" d="M16 25.333c-5.867 0-10.667-1.733-10.667-4v4c0 2.267 4.8 4 10.667 4s10.667-1.733 10.667-4v-4c0 2.267-4.8 4-10.667 4z"></path>
</svg>
