<?xml version="1.0" encoding="utf-8"?>
<!-- Generated by IcoMoon.io -->
<!DOCTYPE svg PUBLIC "-//W3C//DTD SVG 1.1//EN" "http://www.w3.org/Graphics/SVG/1.1/DTD/svg11.dtd">
<svg version="1.1" xmlns="http://www.w3.org/2000/svg" xmlns:xlink="http://www.w3.org/1999/xlink" width="32" height="32" viewBox="0 0 32 32">
<path fill="#000000" d="M21.333 5.333h-1.333v-2.667h10.667v1.333h-9.333z"></path>
<path fill="#000000" d="M30.667 28h-10.667v-9.333h10.667v1.333h-9.333v6.667h9.333z"></path>
<path fill="#000000" d="M21.333 24h-10.667v-6.667h1.333v5.333h9.333z"></path>
<path fill="#000000" d="M9.333 17.067h-8v-3.333h8c0.133 0 0.267-0.133 0.267-0.267v-4.133c0-2 1.6-3.733 3.733-3.733h5.333c2 0 3.733 1.6 3.733 3.733 0 0.133 0.133 0.267 0.267 0.267h3.867v3.333h-3.867c-2 0-3.733-1.6-3.733-3.733 0-0.133-0.133-0.267-0.267-0.267h-5.333c-0.133 0.133-0.267 0.267-0.267 0.4v4c0 2-1.733 3.733-3.733 3.733z"></path>
<path fill="#000000" d="M25.333 15.2l6.667-3.867-6.667-3.867z"></path>
</svg>
