<?xml version="1.0" encoding="utf-8"?>
<!-- Generated by IcoMoon.io -->
<!DOCTYPE svg PUBLIC "-//W3C//DTD SVG 1.1//EN" "http://www.w3.org/Graphics/SVG/1.1/DTD/svg11.dtd">
<svg version="1.1" xmlns="http://www.w3.org/2000/svg" xmlns:xlink="http://www.w3.org/1999/xlink" width="32" height="32" viewBox="0 0 32 32">
<path fill="#000000" d="M17.867 23.067h-4v-8h2c2.933-0.133 4.8-1.867 4.8-4.533 0-2.133-1.2-4.4-4.667-4.4-1.467 0-2.533 0.4-3.2 1.2-0.933 1.067-1.333 2.667-1.2 3.733l-4 0.133c-0.133-1.867 0.533-4.667 2.4-6.667 1.467-1.6 3.6-2.4 6.133-2.4 5.2 0 8.667 3.467 8.667 8.4 0 4.267-2.667 7.333-6.667 8.267v4.267z"></path>
<path fill="#000000" d="M18.667 27.333c0 1.467-1.2 2.667-2.667 2.667v0c-1.467 0-2.667-1.2-2.667-2.667v0c0-1.467 1.2-2.667 2.667-2.667v0c1.467 0 2.667 1.2 2.667 2.667v0z"></path>
</svg>
