<?xml version="1.0" encoding="utf-8"?>
<!-- Generated by IcoMoon.io -->
<!DOCTYPE svg PUBLIC "-//W3C//DTD SVG 1.1//EN" "http://www.w3.org/Graphics/SVG/1.1/DTD/svg11.dtd">
<svg version="1.1" xmlns="http://www.w3.org/2000/svg" xmlns:xlink="http://www.w3.org/1999/xlink" width="32" height="32" viewBox="0 0 32 32">
<path fill="#000000" d="M24.267 14.667l-6.267 13.467c-0.4 0.667-1.2 1.2-2 1.2s-1.6-0.533-2-1.2l-6.267-13.467c-0.4-0.933-0.533-2-0.533-3.067-0.133-4.933 3.867-8.933 8.8-8.933s8.933 4 8.933 8.933c0 1.067-0.133 2.133-0.667 3.067zM16 7.067c-2.4 0-4.4 2-4.4 4.4s2 4.4 4.4 4.4c2.4 0 4.4-2 4.4-4.4s-2-4.4-4.4-4.4z"></path>
</svg>
