<?xml version="1.0" encoding="utf-8"?>
<!-- Generated by IcoMoon.io -->
<!DOCTYPE svg PUBLIC "-//W3C//DTD SVG 1.1//EN" "http://www.w3.org/Graphics/SVG/1.1/DTD/svg11.dtd">
<svg version="1.1" xmlns="http://www.w3.org/2000/svg" xmlns:xlink="http://www.w3.org/1999/xlink" width="32" height="32" viewBox="0 0 32 32">
<path fill="#000000" d="M9.067 29.333c0-1.467 1.2-2.667 2.667-2.667h8.667c1.467 0 2.667 1.2 2.667 2.667s-1.2 2.667-2.667 2.667h-8.667c-1.467 0-2.667-1.2-2.667-2.667zM9.067 22.667c0 1.467 1.2 2.667 2.667 2.667h8.667c1.467 0 2.667-1.2 2.667-2.667s-1.2-2.667-2.667-2.667h-8.667c-1.467 0-2.667 1.2-2.667 2.667zM20.267 0c-1.467 0-2.667 1.2-2.667 2.667v4.4l-3.733-5.733c0 0 0 0 0 0s0 0 0 0c-0.133-0.133-0.133-0.267-0.267-0.4 0 0 0 0 0 0s0 0 0 0c-0.533-0.667-1.2-0.933-1.867-0.933-1.467 0-2.667 1.2-2.667 2.667v13.333c0 1.467 1.2 2.667 2.667 2.667s2.667-1.2 2.667-2.667v-4.4l3.733 5.733c0 0 0 0 0 0s0 0 0 0c0.133 0.133 0.133 0.267 0.267 0.4 0 0 0 0 0 0s0 0 0 0c0.533 0.4 1.067 0.667 1.867 0.667 1.467 0 2.667-1.2 2.667-2.667v-13.067c0-1.467-1.067-2.667-2.667-2.667z"></path>
</svg>
