<?xml version="1.0" encoding="utf-8"?>
<!-- Generated by IcoMoon.io -->
<!DOCTYPE svg PUBLIC "-//W3C//DTD SVG 1.1//EN" "http://www.w3.org/Graphics/SVG/1.1/DTD/svg11.dtd">
<svg version="1.1" xmlns="http://www.w3.org/2000/svg" xmlns:xlink="http://www.w3.org/1999/xlink" width="32" height="32" viewBox="0 0 32 32">
<path fill="#000000" d="M30 25.6c-0.667-0.933-1.333-2.133-1.6-3.067-1.467-4.133-1.467-4.4-2.133-6.267-0.133-0.533-0.267-2.533-1.2-2.8-0.133-1.2-0.4-2.4-1.467-2.4-0.133-0.8-0.4-1.6-0.8-2-0.8-1.067-2.533 0.267-2.533 0.267s0.267-0.4-0.133-1.467c-0.267-1.067-1.2-2.8-1.6-3.867-0.4-1.2-0.533-2.133-1.067-2.267-0.533 0-0.933 0.533-1.2 1.467-0.267 1.2 0.267 3.6 0.267 5.6 0 0.933 0.133 2.267 0.267 2.667 0.133 1.067-0.533 1.733-0.667 2.8-0.133 0.8-0.4 5.6-3.2 6.267-1.6 0.4-3.067-0.4-4.667-0.933-1.067-0.267-4.133-0.267-4.667 1.467-0.667 2 5.067 2.4 6.533 3.6 0.533 0.4 2 1.2 3.467 2.133 0.933 0.667 1.733 1.467 2.8 2 1.467 0.8 2.8 1.067 3.733 1.467 0.533 0.133 1.6 0.8 2.267 1.467 1.6 1.467 9.2-4.133 7.6-6.133z"></path>
<path fill="#000000" d="M15.867 5.733v0l0.133-1.333c-0.4-0.4-0.533-0.8-0.533-1.333 0-1.067 0.8-1.867 1.867-1.867s1.867 0.8 1.867 1.867c0 0.4-0.133 0.8-0.267 1.067v0l0.4 0.533 1.6-4.667c-0.133-0.4-8.133 1.067-8.133 1.067l1.867 2c0 0-1.2 1.067-2.267 2.533-1.6 2.133-3.333 4.8-3.333 4.8s2.4-2.267 4.533-3.6c0.8-0.533 1.6-0.933 2.267-1.067z"></path>
<path fill="#000000" d="M5.067 23.333c-0.133 0-0.133 0-0.267 0-1.067 0-1.867-0.8-1.867-1.867s0.8-1.867 1.867-1.867c0 0 0.533 0 1.2-0.267s0.8-0.533 0.8-0.533v0c0.133-0.8 0.4-2 0.667-3.2 0.667-2.4 1.467-4.933 1.467-4.933s-1.6 2-2.933 4c-1.2 1.733-2.133 3.6-2.133 3.6l-2.133-0.533c0 0 0.933 7.333 1.333 7.467 0.133 0 1.067-0.667 2.133-1.6l-0.133-0.267z"></path>
</svg>
