<?xml version="1.0" encoding="utf-8"?>
<!-- Generated by IcoMoon.io -->
<!DOCTYPE svg PUBLIC "-//W3C//DTD SVG 1.1//EN" "http://www.w3.org/Graphics/SVG/1.1/DTD/svg11.dtd">
<svg version="1.1" xmlns="http://www.w3.org/2000/svg" xmlns:xlink="http://www.w3.org/1999/xlink" width="32" height="32" viewBox="0 0 32 32">
<path fill="#000000" d="M17.333 26.667c-2.8 0-5.467-1.067-7.6-3.067l1.867-1.867c1.6 1.467 3.6 2.267 5.733 2.267s4.133-0.8 5.6-2.4c1.467-1.467 2.4-3.467 2.4-5.6s-0.8-4.133-2.4-5.6c-1.467-1.6-3.467-2.4-5.6-2.4s-4.133 0.8-5.6 2.4c-1.6 1.467-2.4 3.467-2.4 5.6h-2.667c0-2.8 1.067-5.467 3.067-7.6 2.133-2 4.8-3.067 7.6-3.067s5.467 1.067 7.6 3.067c2 2.133 3.067 4.8 3.067 7.6s-1.067 5.467-3.067 7.6c-2.133 2-4.8 3.067-7.6 3.067z"></path>
<path fill="#000000" d="M8.133 21.867l-5.733-4.8 1.867-2.133 3.6 3.2 3.2-3.067 1.867 1.867z"></path>
<path fill="#000000" d="M6.667 16h2.667v2.667h-2.667v-2.667z"></path>
</svg>
