<?xml version="1.0" encoding="utf-8"?>
<!-- Generated by IcoMoon.io -->
<!DOCTYPE svg PUBLIC "-//W3C//DTD SVG 1.1//EN" "http://www.w3.org/Graphics/SVG/1.1/DTD/svg11.dtd">
<svg version="1.1" xmlns="http://www.w3.org/2000/svg" xmlns:xlink="http://www.w3.org/1999/xlink" width="32" height="32" viewBox="0 0 32 32">
<path fill="#000000" d="M10.667 22.667v-17.333h-2.667v17.333h-2.667l4 4 4-4z"></path>
<path fill="#000000" d="M22 14.667h-1.733v-8.933h-2.267v-1.733h4z"></path>
<path fill="#000000" d="M23.333 20.667c0-1.467-1.2-2.667-2.667-2.667s-2.667 1.2-2.667 2.667v1.067c0 1.467 1.2 2.667 2.667 2.667 0.4 0 0.667-0.133 0.933-0.133v0.4c0 0.933-0.667 1.867-1.333 1.867h-1.6v1.467h1.6c1.733 0 3.067-1.6 3.067-3.467v-2.533c0-0.133 0-0.267 0-0.267v-1.067zM20.667 22.667c-0.533 0-1.067-0.4-1.067-1.067v-1.067c0-0.533 0.4-1.067 1.067-1.067s1.067 0.4 1.067 1.067v1.067c-0.133 0.667-0.533 1.067-1.067 1.067z"></path>
</svg>
